<svg id="Camada_1" data-name="Camada 1" xmlns="http://www.w3.org/2000/svg" viewBox="0 0 512 512"><defs><style>.cls-1{fill:#fff;}</style></defs><title>bola-icon</title><path class="cls-1" d="M435.4,361.4l-89.7-6a22.1,22.1,0,0,0-14.5,4.2,21.64,21.64,0,0,0-8.4,12.5l-22,87.2a206.38,206.38,0,0,1-44.8,4.8,213.49,213.49,0,0,1-44.8-4.8l-22-87.2a23,23,0,0,0-8.4-12.5,21.94,21.94,0,0,0-14.5-4.2l-89.7,6A207.31,207.31,0,0,1,49,276.2l76-47.9a22.17,22.17,0,0,0,8.7-26.9L100.4,118a209.69,209.69,0,0,1,72.4-52.7l69.1,57.6a22,22,0,0,0,28.2,0l69.1-57.6A209.69,209.69,0,0,1,411.6,118l-33.4,83.4a22.1,22.1,0,0,0-.5,15,22.69,22.69,0,0,0,9.2,11.9L463,276.2a208.79,208.79,0,0,1-27.6,85.2ZM256,48h0ZM56.7,196.2c.9-3,1.9-6.1,2.9-9.1ZM132,423l3.8,2.7C134.5,424.8,133.3,423.9,132,423Zm248.1-.1c-1.3,1-2.6,2-4,2.9Zm75.2-226.7-3-9.2C453.4,190,454.4,193.1,455.3,196.2ZM256,512c141.38,0,256-114.62,256-256S397.38,0,256,0,0,114.62,0,256,114.62,512,256,512Zm14.1-325.7a24,24,0,0,0-28.2,0L194,221a24,24,0,0,0-8.7,26.8l18.3,56.3a24,24,0,0,0,22.8,16.6h59.2a24,24,0,0,0,22.8-16.6l18.3-56.3A24,24,0,0,0,318,221l-47.9-34.8Z" transform="translate(0 0)"/></svg>